<svg width="1200" height="560" viewBox="0 0 1200 560" fill="none" xmlns="http://www.w3.org/2000/svg">
  <rect width="1200" height="560" rx="40" fill="#F5F7F4"/>
  <rect x="70" y="86" width="1060" height="388" rx="34" fill="#FBFCFA" stroke="#D9E3E0" stroke-width="3"/>
  <path d="M160 170H1040" stroke="#D8E7E3" stroke-width="18" stroke-linecap="round"/>
  <path d="M160 280H1040" stroke="#D8E7E3" stroke-width="18" stroke-linecap="round"/>
  <path d="M160 390H1040" stroke="#D8E7E3" stroke-width="18" stroke-linecap="round"/>
  <path d="M600 106V454" stroke="#E9EFED" stroke-width="3" stroke-dasharray="12 14"/>
  <rect x="530" y="46" width="140" height="48" rx="24" fill="#0F766E"/>
  <text x="600" y="77" fill="white" font-family="Arial, Helvetica, sans-serif" font-size="20" text-anchor="middle" font-weight="700">unknown space</text>
  <g>
    <circle cx="220" cy="280" r="46" fill="#D1FAE5" stroke="#10B981" stroke-width="4"/>
    <circle cx="220" cy="258" r="13" fill="#065F46"/>
    <path d="M194 305C205 288 235 288 246 305" stroke="#065F46" stroke-width="7" stroke-linecap="round"/>
    <path d="M276 280H390" stroke="#10B981" stroke-width="8" stroke-linecap="round"/>
    <path d="M390 280L358 258" stroke="#10B981" stroke-width="8" stroke-linecap="round"/>
    <path d="M390 280L358 302" stroke="#10B981" stroke-width="8" stroke-linecap="round"/>
    <rect x="156" y="350" width="128" height="44" rx="22" fill="#ECFDF5" stroke="#A7F3D0"/>
    <text x="220" y="378" fill="#047857" font-family="Arial, Helvetica, sans-serif" font-size="20" text-anchor="middle" font-weight="700">left = you</text>
  </g>
  <g>
    <circle cx="980" cy="280" r="46" fill="#DBEAFE" stroke="#3B82F6" stroke-width="4"/>
    <circle cx="980" cy="258" r="13" fill="#1E3A8A"/>
    <path d="M954 305C965 288 995 288 1006 305" stroke="#1E3A8A" stroke-width="7" stroke-linecap="round"/>
    <path d="M924 280H810" stroke="#3B82F6" stroke-width="8" stroke-linecap="round"/>
    <path d="M810 280L842 258" stroke="#3B82F6" stroke-width="8" stroke-linecap="round"/>
    <path d="M810 280L842 302" stroke="#3B82F6" stroke-width="8" stroke-linecap="round"/>
    <rect x="895" y="350" width="170" height="44" rx="22" fill="#EFF6FF" stroke="#BFDBFE"/>
    <text x="980" y="378" fill="#1D4ED8" font-family="Arial, Helvetica, sans-serif" font-size="20" text-anchor="middle" font-weight="700">right = friend</text>
  </g>
  <g font-family="Arial, Helvetica, sans-serif" text-anchor="middle" font-weight="800">
    <rect x="435" y="235" width="60" height="60" rx="18" fill="#FFFFFF" stroke="#CBD5E1" stroke-width="3"/>
    <text x="465" y="273" fill="#0F1720" font-size="28">h</text>
    <rect x="510" y="235" width="60" height="60" rx="18" fill="#FFFFFF" stroke="#CBD5E1" stroke-width="3"/>
    <text x="540" y="273" fill="#0F1720" font-size="28">e</text>
    <rect x="585" y="235" width="60" height="60" rx="18" fill="#FFFFFF" stroke="#CBD5E1" stroke-width="3"/>
    <text x="615" y="273" fill="#0F1720" font-size="28">l</text>
    <rect x="660" y="235" width="60" height="60" rx="18" fill="#FFFFFF" stroke="#CBD5E1" stroke-width="3"/>
    <text x="690" y="273" fill="#0F1720" font-size="28">l</text>
    <rect x="735" y="235" width="60" height="60" rx="18" fill="#FFFFFF" stroke="#CBD5E1" stroke-width="3"/>
    <text x="765" y="273" fill="#0F1720" font-size="28">o</text>
  </g>
  <path d="M465 318C465 350 765 350 765 318" stroke="#0F766E" stroke-width="5" stroke-linecap="round" stroke-dasharray="10 12"/>
  <text x="615" y="388" fill="#53606F" font-family="Arial, Helvetica, sans-serif" font-size="22" text-anchor="middle" font-weight="700">swap the ends, then both move closer</text>
</svg>
